<svg version="1.0" xmlns="http://www.w3.org/2000/svg" viewBox="0 0 720 223"><path d="M13.8 3C8.1 6 4.7 9.6 1.6 15.9.2 19 0 28.1 0 111.6v92.3l2.5 4.8c3.5 6.5 5.8 8.7 12.1 11.7l5.5 2.6h679.5l4.5-2.1c5.9-2.8 9.6-6.4 12.5-12.1l2.4-4.7V18.9l-2.5-4.8c-2.8-5.6-7.2-9.6-13.3-12.2-4.2-1.8-15-1.9-344-1.9L19.5.1 13.8 3zM354 56.6V76h-5V56.6c0-17.7.2-19.5 1.8-19.9.9-.2 2-.2 2.5 0 .4.2.7 9.2.7 19.9zm94-.1V76h-2.5c-1.6 0-2.5-.6-2.5-1.5 0-1.9-1.4-1.9-2.9-.1-3.2 3.8-12.3 2.2-15.5-2.6-.8-1.2-1.8-4.2-2.2-6.4-1.4-9 4.1-16.4 12.1-16.4 2.4 0 4.7.4 5 1 1.6 2.6 2.5.4 2.5-6v-7h6v19.5zm116-12c0 4.3.4 7.5 1 7.5s1-.4 1-.9 1.5-1.4 3.4-2.1c4.1-1.3 7.5-.2 10.5 3.6 1.8 2.3 2.1 4 2.1 13 0 10.3 0 10.4-2.4 10.4s-2.4-.2-2.8-10.1c-.2-8.6-.6-10.3-2.2-11.5-2.8-2-5.6-1.7-8.3.8-2.1 1.9-2.3 3-2.3 11.5 0 9.3 0 9.3-2.5 9.3H559V37h2.5c2.4 0 2.5.2 2.5 7.5zm-433.2 0c-.7 7.6-3.6 13.3-9.9 18.9-4.7 4.3-9.5 6.6-13.9 6.6-2.9 0-3-.2-3-4.3 0-6.9 5-15.9 11.6-20.8 4.5-3.5 11.3-6.6 14.8-6.8.5-.1.6 2.8.4 6.4zM238 40.9c6.9 3.5 10 11.6 7.9 21-1.8 8.6-6.3 12.5-16.3 14.1-2.9.5-7.2.6-9.5.3l-4.1-.6V39.1l3.3-.4c5.5-.8 15 .3 18.7 2.2zm309.8 5.4c.3 2.1.9 2.6 3.5 2.9 4.4.4 4.3 3.2-.1 3.6l-3.3.3.3 9.2c.3 8.8.4 9.1 2.8 9.7 2.9.7 3.9 3.7 1.6 4.6-2.2.8-6.1-.3-8-2.2-1.2-1.2-1.6-3.7-1.6-11 0-9.2-.1-9.5-2.5-10.4-1.4-.5-2.5-1.4-2.5-2 0-.6 1.1-1.5 2.5-2 1.5-.6 2.5-1.7 2.5-2.9 0-3.9 4.3-3.8 4.8.2zm-30.3 5.9c2.3 2.7 2.5 3.7 2.5 13.4V76h-2.5c-2.5 0-2.5 0-2.5-9.3 0-10.7-1.3-13.7-6-13.7-5.1 0-7 3.8-7 14.1 0 8.8 0 8.9-2.5 8.9H497V62.5c0-12.9.1-13.5 2-13.5 1.1 0 2.3.7 2.6 1.5.5 1.2 1 1.3 2 .5 1.8-1.6 6.5-2.7 9.1-2.2 1.3.2 3.4 1.8 4.8 3.4zm92.6-1.7c2.8 1.8 4.9 5.9 4.9 9.7V64h-9.5c-10.8 0-11.8.9-6.4 6.2 2.8 2.9 3.4 3 8.4 2.5 4-.4 5.5-.2 5.9.9.7 1.9-6.6 3.7-11.7 2.8-7.9-1.3-12.2-9.2-9.8-18.1 2.2-8.3 11.3-12.2 18.2-7.8zm-340.1 0c9.1 4.7 7.7 21.8-2 25.2-4 1.4-9.2.9-12.6-1.4-4.9-3.1-6.6-13.4-3.2-19.6 2.6-5 12-7.2 17.8-4.2zm13.8.2c.6 1 1.9 5.6 3.1 10.2 1.1 4.6 2.2 8.6 2.4 8.8.2.1 1.8-4.5 3.6-10.3 2.9-9.5 3.4-10.5 5.4-10.2 1.8.2 2.7 1.9 5.1 10 2.8 9.1 4.6 12.2 4.6 8 0-.9 1.1-5.3 2.4-9.7 1.9-6.5 2.7-8.1 4.5-8.3 2.8-.4 2.7.2-1.7 14.3-3.5 10.9-4.1 12-6.4 12.3-2.3.3-2.7-.2-5.4-9.2-1.5-5.3-3.1-9.6-3.4-9.6-.3 0-1.8 4.3-3.4 9.6-2.8 9-3.1 9.5-5.5 9.2-2.4-.3-2.9-1.3-6.3-12.3-2-6.6-3.7-12.6-3.7-13.3-.1-1.8 3.7-1.4 4.7.5zm41-.1c.9 1.6 1.1 1.6 3.3 0 3.5-2.4 9.5-2.1 12.4.8 2.6 2.6 3.9 9.5 3.3 18.6-.3 5.2-.5 5.5-3 5.8l-2.8.3v-9.7c0-10.8-1.1-13.4-6-13.4s-6.5 3.1-6.7 13.4c-.2 9-.2 9.1-2.7 9.4l-2.6.3V62.6c0-12.8.1-13.6 2-13.6 1 0 2.3.7 2.8 1.6zm57.1 1c5.7 4.8 6.4 14.5 1.5 20.3-5 6-14.1 6.3-19.4.6-2.9-3.1-3.9-11.9-2-16.6 2.9-6.9 14-9.3 19.9-4.3zm27.3-1.5c3.3 1.8 4.8 7.1 4.8 16.9 0 8.9 0 9-2.4 9-1.3 0-2.6-.5-2.8-1.1-.2-.6-1.4-.5-3.3.5-4 2.1-6.7 2-9.8-.4-5.5-4.3-3.8-11.5 3.3-14.4 2.2-.9 5.1-1.6 6.5-1.6 3.6 0 3.9-1.7 1-4.6-1.8-1.8-3.2-2.4-4.8-2-1.2.3-3.2.8-4.3 1.2-3.1.8-4.1-2.4-1.1-3.6 3.1-1.2 10.4-1.2 12.9.1zm78.3 2.2c10.7 10.7-.8 29.7-14.1 23.1-5.4-2.7-7.6-6.2-7.6-12.1 0-9.4 4.6-14.2 13.6-14.3 4.1 0 5.3.5 8.1 3.3zM96.8 72.1c9.2 3.7 12.4 3.6 22.3-.2 14.7-5.7 24.5-4.1 34.9 5.7 2.7 2.6 5 5.1 5 5.5 0 .5-2 2.7-4.5 5-9.6 8.8-12.6 22.2-7.6 33.6 2.4 5.3 9 12.4 13.6 14.5 1.4.6 2.5 1.5 2.5 2 0 1.8-6.4 13.5-10.5 19.3-7.8 10.9-15.3 16.5-22 16.5-1.4 0-5.3-1.2-8.8-2.6-8.6-3.6-17.6-3.6-27.4 0-4 1.4-8.3 2.6-9.5 2.6-7.8-.1-19.5-11.2-27-25.5-16.6-32-12.8-62.9 9.5-75.9 8.8-5.2 17.1-5.3 29.5-.5zm353 31.6c2.3.8 4.2 1.7 4.2 1.9 0 1.4-2.3 9.4-2.7 9.4-.2 0-2.7-.7-5.4-1.6-6.9-2.3-13.6-1.4-16.6 2.1-1.3 1.4-2.3 3.5-2.3 4.5 0 3.2 4.8 7.7 10.7 10.1 15.3 6.1 20.6 12.9 18.9 24.2-2.2 14.5-19.8 21-39.3 14.6-3.6-1.2-3.9-2.2-2.2-8.2.8-3 1.4-3.7 2.7-3.2 15 6.3 26.2 3.6 26.2-6.3 0-3.9-2.9-6.3-13-11-15.6-7.1-20.2-16.6-13.8-28.2 5-9.1 19.8-12.9 32.6-8.3zm-193.3 26c4.7 14.8 9.5 29.5 10.6 32.7 1 3.3 1.9 6.4 1.9 6.8 0 .5-3 .8-6.7.6l-6.7-.3-2.8-9.3-2.9-9.2h-9.8c-6.7 0-10.2.4-10.9 1.2-.5.7-2 5-3.3 9.6l-2.2 8.2h-6.9c-3.8 0-6.7-.3-6.5-.8.3-.4 5.1-15.1 10.7-32.7s10.4-32.3 10.7-32.8c.2-.4 4-.7 8.3-.7h7.9l8.6 26.7zm225.7-14.5.3 6.3 5 .2c2.8.1 5.3.2 5.8.2.4.1.7 2.1.7 4.6v4.5h-12v12.2c0 15.1.8 17.2 6.8 17.6l4.2.3v4.4c0 2.4-.4 4.7-1 5-1.8 1.1-11.8.7-14.6-.6-6-3-6.9-5.5-7.4-22.7l-.5-15.7-3.3-.3c-3.3-.3-3.3-.4-3-5 .3-4.5.4-4.7 3.3-4.7 2.8 0 3-.2 3.1-4.3.1-2.3.3-4.4.5-4.6.4-.4 9.7-3.3 11.1-3.5.4-.1.8 2.7 1 6.1zm-169.1 7.4c6.6 3.3 11.9 13.5 11.9 22.9 0 10.5-6.9 22-14.7 24.6-5.3 1.7-14.3.7-18.1-2l-3.2-2.2V190h-12v-29.4c0-16.1-.3-31.4-.6-34l-.7-4.6h5.5c5.4 0 5.6.1 6.2 3.2l.6 3.2 3-2.9c5.2-5 15.3-6.3 22.1-2.9zm60.9.3c12.9 6.6 15.9 30.2 5.2 41.4-6.7 7.1-18.5 9-25.6 4.2l-3.6-2.4v24l-6.2-.3-6.3-.3v-67.9h5c4.9 0 5 0 5.3 3.2.3 3.4 1.5 4.1 2.9 1.9.4-.8 2-2.2 3.6-3.2 5.9-3.8 13-4 19.7-.6zm162.5 1c7.4 3.9 10.9 10.1 11.3 20.1.3 6.3 0 8.6-1.8 12.9-7.9 18.4-35.6 19.4-44.7 1.6-2.2-4.1-2.9-15.4-1.3-20.9 1.4-5.1 6.8-11.9 11.2-14.2 7.6-3.9 17.3-3.8 25.3.5zm47.4-2.5c.7.8 1.1 3.5.9 6.1l-.3 4.7-4.5.3c-3.5.3-5.1 1-7.2 3.5-2.8 3-2.8 3-2.8 18.5V170h-13l.2-24.2.3-24.3 4.5.2c2.5.1 4.8.2 5.3.2.4.1.7 1.7.7 3.6v3.5l3.9-3.9c2.2-2.2 5.2-4.1 6.8-4.4 1.5-.2 3.1-.5 3.4-.6.4 0 1.2.5 1.8 1.3zm38.8.7c4.2 1.3 9.7 7.8 11.2 13.2.7 2.3 1.1 6.5.9 9.2l-.3 5-15.7.3c-15.2.2-15.8.3-15.8 2.3 0 1.2 1.5 3.6 3.3 5.3 3.9 4 9.6 5.1 17.6 3.6 2.9-.5 5.7-1 6.1-1 .4 0 1.1 1.6 1.7 3.5.8 2.5.8 3.7-.1 4.4-2.4 2-10.9 3.3-18.1 2.9-6-.4-8.4-1.1-12.2-3.4-14.9-9.1-13.5-35.8 2.2-44.2 5.9-3.1 11.6-3.4 19.2-1.1z"/><path d="M430.2 55c-2.3 2.8-2.9 5.8-2.1 10.3.9 4.9 3 7 7 7 4.8 0 6.9-3.2 6.9-10.3 0-4.2-.5-6.1-1.8-7.3-2.6-2.4-7.8-2.2-10 .3zm-208-12.2c-.9.6-1.2 4.4-1 15.3l.3 14.4 4.8-.2c9.6-.5 14.7-5.7 14.7-15.1 0-6.4-2-10.6-6-12.7-3.7-1.9-11.1-2.9-12.8-1.7zm376.5 12c-1 1-1.7 2.6-1.7 3.5 0 1.4 1.1 1.7 6.5 1.7 7 0 7.8-.7 4.9-4.8-1.9-2.8-7.4-3-9.7-.4zm-338.9-1.2c-5.5 2.9-5.8 14.2-.5 17.9 3.2 2.2 5.5 1.8 8.8-1.4 7.3-7.3.3-21.2-8.3-16.5zm111.6-.6c-3.4 1.3-5.4 5-5.4 9.8 0 3.5.6 4.9 2.9 7.3 3.6 3.5 6.4 3.7 9.6.4 3.1-3 3.7-9.5 1.4-14.1-.9-1.7-5.1-4.7-6.2-4.3-.1 0-1.2.4-2.3.9zm28.8 11.6c-3.7 2.5-2.4 8.4 1.9 8.4 2.8 0 6.1-3.4 6.5-6.8.3-3 .2-3.2-2.9-3.2-1.8 0-4.3.7-5.5 1.6zM476.4 53c-4.9 1.9-6.9 9.5-4.3 15.4 2.6 5.6 10.8 5.6 12.9 0 2-5.1 1.2-10.3-1.9-13.5-3.2-3.1-3.5-3.2-6.7-1.9zm-237.7 63c-4.3 15-6.7 24.1-6.7 24.9 0 .7 2.8 1.1 7.5 1.1 5.7 0 7.5-.3 7.5-1.4 0-.7-1.3-5.4-3-10.4-1.6-5-3-9.9-3-10.9s-.4-2.5-1-3.3c-.8-1.3-.9-1.3-1.3 0zm57.6 15.5c-4.9 2.1-7.3 6.8-7.3 14.3 0 10.5 3.8 15.6 11.4 15.6 7.1 0 11.6-6 11.6-15.5 0-11.2-7.5-18.1-15.7-14.4zm61.1-.5c-1.1.4-3.3 2.2-4.7 4-2.4 2.8-2.7 4-2.7 10.8 0 9.3 1.3 12.1 6.4 14.6 3.6 1.7 4.3 1.8 8 .5 3.3-1.1 4.6-2.3 6.4-5.9 6.4-12.7-2.4-28.5-13.4-24zm160 .8c-3.5 2.7-5.4 7.7-5.4 13.7 0 6.7 1.8 11.4 5.5 14.3 5.5 4.3 13.1 1.7 16.1-5.4 3-7.3.8-19.6-4.1-22.8-3.2-2.1-9.5-2-12.1.2zm91.4-1.2c-2.8 1.5-5.8 6.1-5.8 8.9 0 1.2 1.6 1.5 10 1.5 9.4 0 10-.1 10-2 0-3.4-2.9-8-5.6-9-3.4-1.3-5.4-1.2-8.6.6z"/></svg>