<svg version="1.0" xmlns="http://www.w3.org/2000/svg" viewBox="0 0 732 221"><path d="M17.6 3.5c-7.5 3-10 5.5-13.7 13.1L1 22.8v87.1c0 85.8 0 87.1 2.1 92.6 2.6 7 8.5 12.8 15.6 15.5 5.3 2 8.1 2 347.1 2 271.3 0 342.6-.3 345.9-1.3 6.2-1.9 12.7-6.9 16-12.4l2.8-4.8.3-89.9.2-90-2.5-5.3c-3.1-6.3-9-11.6-15.3-13.7C709.1 1.2 673.3 1 366.1 1H23.5l-5.9 2.5zM98.2 40c4 3.1 4.9 6.6 4.6 18-.3 9-.5 10.5-2 10.8-1.6.3-1.8-.5-1.8-6.7 0-3.9-.4-7.1-.9-7.1-.4 0-2 1.1-3.5 2.5-2.3 2.1-2.6 3.2-2.6 8.5s-.2 6-2 6c-1.6 0-2-.7-2.1-3.3-.3-11 .9-14.3 6.1-16.5 4.6-2 4.9-3.4 1.5-6.7-1.7-1.8-3.5-2.5-6.2-2.5-5.6 0-11.2 1.8-13.9 4.5C73.1 49.8 73 50.6 73 63c0 12.3-.1 13-2 13s-2-.7-2-12.6c0-14.3 1.2-18.4 6.4-21.2 8.3-4.5 18.6-5.5 22.8-2.2zM241 44.1c5.6 3.2 8 8.2 8 16.9 0 8.5-2.4 13.9-7.7 17-2.8 1.7-5.2 2-13.9 2H217V42h10.1c8.5 0 10.7.3 13.9 2.1zM359.5 61v18.5l-3.2.3-3.3.3V61.7c0-10.1.3-18.7.7-19.1.4-.4 1.9-.6 3.3-.4l2.5.3V61zm90.3.2L450 80h-2.9c-1.6 0-3.3-.5-3.6-1-.4-.7-1.4-.5-2.8.5-5 3.5-14.3.4-16.8-5.7-2-5-1.5-13.1 1.1-16.8 3.6-5 9.8-6.4 15.4-3.5 1.5.8 3 1.5 3.2 1.5.2 0 .4-3 .4-6.6v-6.5l2.8.3 2.7.3.3 18.7zM565 48.5c0 6.9.3 7.3 3.4 5 3.2-2.4 9.3-1.9 12.1 1 2.3 2.3 2.5 3.1 2.5 13 0 5.8.1 10.8.3 11.2.1.5-1.3.9-3 1.1l-3.3.3v-9.3c0-6.8-.4-10-1.6-11.6-2.1-3-5.8-2.8-8.3.4-1.8 2.3-2.1 4.1-2.1 11.5V80h-6V42h6v6.5zm-14.8-.3c.2 3.6.6 4.3 2.3 4.1 4-.3 4.8 4.4.8 4.9-2.8.3-2.8.4-3.1 8.1-.3 8.3.6 10.7 3.9 10.7 1.2 0 1.9.7 1.9 1.9 0 2.6-5 3.7-8.7 1.9-2.7-1.3-2.8-1.5-3.3-11.8-.5-10-.6-10.5-2.8-10.8-3.1-.5-2.7-4.6.6-5 1.8-.3 2.2-1 2.2-4.3 0-3.7.2-3.9 2.9-3.9 2.8 0 3 .3 3.3 4.2zm-430.2 3c1.3 2.2 2 5.1 2 8.5 0 4.6-.3 5.3-2 5.3-1.2 0-2.1-.7-2.2-1.8 0-.9-.2-2.6-.3-3.7-.1-1.1-.3-2.5-.4-3.2-.2-2.2-3.2-4.3-6.2-4.3-2.2 0-2.9-.5-2.9-2 0-1.7.7-2 5-2 4.6 0 5.2.3 7 3.2zm155.5 5c8.3 9 3.5 23.5-8.2 24.5-8.9.8-15.3-5.1-15.3-14 0-9.5 5.7-15.1 14.9-14.4 4.7.3 5.9.9 8.6 3.9zm11.3-3.3c.7.4 2.2 4.4 3.3 8.7 1.1 4.3 2.4 8.3 2.8 8.7.4.4 1.6-2.8 2.5-7.1 2.1-9.7 3.4-11.7 6.8-10.9 2.3.6 2.8 1.6 4.4 8.9 2 8.7 3.8 10.9 4.7 5.6.9-5.7 2.8-12.2 3.9-13.5 1.2-1.5 4.4-1.7 5.3-.3.3.6-.3 3.6-1.4 6.8-1 3.1-2.9 9-4.2 12.9-2.1 7.1-2.2 7.3-5.5 7.3-3.6 0-3.2.9-6.5-12.8-.7-2.8-1.5-5.2-1.9-5.2-.3 0-1.5 3.9-2.5 8.7l-2 8.8-3.6.3-3.5.3-2.8-9.3c-1.6-5.1-3.4-11.1-4.2-13.2-.7-2.2-1.1-4.3-.8-4.8.7-1 3.5-1 5.2.1zm43.3 1.4c.4.6 1.6.3 3-.7 3.5-2.4 9.5-2.1 12.4.8 2.9 2.9 3.7 6.8 3.3 17.1l-.3 8-3.2.3-3.3.3v-9.7c0-7.7-.4-10.1-1.7-11.6-2.3-2.6-5.8-2.2-8.2.8-1.8 2.3-2.1 4.1-2.1 11.5V80h-6V67.2c0-8.1.4-13.2 1.1-13.9 1.2-1.2 3.9-.6 5 1zm54.6-.3c8.5 5.2 8.1 20.8-.7 25.3-4.8 2.5-12.2 1.8-15.7-1.4-5.3-4.9-6.5-11.6-3.4-18.5 3.2-6.9 12.9-9.6 19.8-5.4zm31.6.8c1.9 1.9 2.2 3.6 2.5 11.7.2 5.3.8 9.5 1.4 9.5.5 0 .8 1 .6 2.2-.4 2.8-4.2 3.6-6.7 1.4-1.2-1.1-2.1-1.2-2.7-.6-.6.6-3.4 1.3-6.2 1.7-5.9.7-9.6-1.1-11.3-5.4-2-5.4 1.8-9.8 9.5-10.8 6.7-1 8.8-2.1 8.4-4.8-.4-3.1-6.6-3.6-9.3-.7-2 2.2-7.5 2.8-7.5.7 0-2 3-5.7 5.4-6.8 1.1-.5 4.7-.7 7.9-.6 4.4.3 6.3.9 8 2.5zm71.8-1.3c4.4 2.3 6.9 7.1 6.9 13 0 9.5-6.5 15.3-15.8 14.2-10.8-1.2-15.7-15.2-8.4-23.9 1.4-1.6 3.5-3.4 4.6-3.8 3.4-1.4 9.5-1.1 12.7.5zm20.1.1c3.8-2.7 9.5-2.1 12.9 1.4 3 2.9 3 2.9 2.7 13.7l-.3 10.8-3.2.3-3.3.3v-9.6c0-11.1-.9-13.5-4.9-13.5-4.8 0-6 2.5-6.3 13l-.3 9.5-3.2.3-3.3.3V66.6c0-12 .2-13.5 1.8-13.9.9-.2 2.5.3 3.4 1.1 1.5 1.2 2 1.2 4-.2zm98.5.4c3.8 2.3 6.5 7.1 6.1 10.8-.3 2.7-.4 2.7-9.7 3.2-5.5.3-9.6 1-9.8 1.6-.2.6.6 2.3 1.7 3.7 2.7 3.5 6.9 3.5 10.8.2 5.9-4.9 8.8-1.4 3.3 3.9-6 5.7-17.2 4.1-20.5-2.9-2.1-4.3-2-10.8.1-15.2 3.2-6.8 11.5-9.3 18-5.3zM147 68.4l8.5 3.4.3 48.5.2 48.4-3.2 1.3c-4.3 1.6-6.7 2.5-10.1 3.9-4 1.6-6.7 1.4-20.2-1.4-6.6-1.4-14.2-3-17-3.5-9.4-1.7-60-12.1-61.8-12.6-1.6-.5-1.7-2.9-1.5-36.1l.3-35.6 5.5-1.2c3-.7 8-1.8 11-2.4 3-.6 9.1-1.8 13.5-2.7 4.4-.9 20.6-4.2 36-7.4 15.4-3.2 28.5-5.8 29-5.9.6 0 4.8 1.5 9.5 3.3zm230.8 70c.1 17.1-.1 26.3-.8 27.1-1.6 1.9-4.5 1.1-4.8-1.3-.4-2.7-.3-2.7-4.8.3-7.3 5-16.8 2.4-21.1-5.8-3.7-7-1.4-20.8 4.3-25.8 5-4.4 14.4-4.9 18.4-.9 1 1 2.1 1.6 2.4 1.2.3-.3.6-4.9.6-10.2 0-5.3.3-10 .7-10.4.4-.4 1.6-.6 2.8-.4 1.9.3 2 1 2.3 26.2zm-82-21.5c.5 3.1-1.1 4.5-4.2 3.7-1.9-.5-2.6-1.3-2.6-3 0-3 .9-3.8 4-3.4 1.8.2 2.6 1 2.8 2.7zm260.1-1.3c2.8.6 3.1 1 3.1 4.1 0 3-.3 3.4-1.7 2.8-7.6-3.1-13.2-2.9-17.7.6-5.7 4.4-2.6 9.7 9 15.6 7.9 4 12.4 9.2 12.4 14.4 0 9-6.1 13.9-17.4 13.9-10.6 0-15.7-3.1-12.8-7.8.7-1 1.6-.9 4.7.3 2.1.9 6.2 1.6 9.2 1.6 6.8 0 9.3-1.9 9.3-7.1 0-4.5-2.1-6.6-10.8-10.9-10.1-5.1-13-9.1-12.3-17 .7-8.2 12.2-13 25-10.5zM225.1 119c.7 2.6 1 3.9 5.9 21.5 1.7 6 3.6 12.1 4.1 13.5 1.1 2.4 1.2 2.2 2.5-3 .8-3 2.3-8.4 3.4-12 1.1-3.6 2.5-8.3 3.2-10.5 3.3-11.7 3.4-12 6.6-12.3 2.2-.2 3.2.2 3.5 1.5.3 1 1.8 6.3 3.2 11.8 1.5 5.5 3.6 13 4.6 16.6 1.1 3.6 1.9 7.4 1.9 8.3 0 3.1 1.8 1.5 2.9-2.7 4.1-15.2 9.1-34.7 9.1-35.1 0-.4 1.6-.6 3.6-.6 3 0 3.5.3 3.1 1.7-.3 1-2.2 7.4-4.1 14.3-2 6.9-4.3 14.7-5.1 17.5-.8 2.7-2.1 7.6-3 10.7-1.4 4.8-2.1 5.9-4.2 6.4-2 .5-3.1.2-4.5-1.6-1-1.2-1.8-2.9-1.8-3.8 0-.9-.9-4.6-2-8.2-1.1-3.6-3-10.3-4.3-14.9-1.3-4.7-2.9-8.7-3.5-8.9-.7-.2-1.2.4-1.2 1.3 0 2.4-9.1 33.8-10.2 35.2-1.2 1.5-3.7 1.7-5.6.4-1.1-.7-5-12.4-9.2-27.6-.5-1.7-2-6.8-3.4-11.5-3.3-11-3.3-11.2.6-10.8 2.4.2 3.3.9 3.9 2.8zm350.6 5c.1 1.9.2 4 .2 4.7.1.7 2 1.3 4.4 1.5 3.5.2 4.3.7 4.5 2.5.3 2.1-.1 2.3-4.2 2.3H576v11.9c0 13.2.8 15.1 5.9 15.1 3.5 0 4.3.8 3 3.1-1.4 2.7-8.8 2.6-11.7-.1-2.8-2.7-3.2-4.3-3.5-18l-.2-11.5-3-.5c-2.7-.5-3.1-1-2.6-3.9 0-.5 1.3-1.1 2.9-1.3 2.4-.3 2.7-.7 2.8-4.1.2-6.5 5.8-8 6.1-1.7zm-246.4 6.2c2.9 1.5 5.6 4.7 6.3 7.2.2 1.2.3 8.2.2 15.6l-.3 13.5h-5l-.5-13.6c-.6-16.4-1.5-18.2-8.8-17.7-3.5.2-4.9.9-6.5 2.9-1.7 2.3-1.9 4.2-1.8 14.7.2 11.1 0 12.2-1.8 13.1-1.1.6-2.7.8-3.6.5-1.3-.6-1.5-2.9-1.3-18.3.3-16.5.4-17.6 2.2-17.9 1.1-.3 2.6.4 3.3 1.4 1.2 1.7 1.5 1.7 5.1-.4 4.1-2.4 9.2-2.8 12.5-1zm83 .8c13.1 6.2 12.2 29.4-1.3 35-4.2 1.8-14 .9-17.2-1.5-5.4-4.1-7.3-8.3-7.3-15.9.1-8.8 2-12.7 8.3-16.7 5.6-3.5 11.3-3.8 17.5-.9zm89-.1c.8.6 1.2 2.2.9 3.6-.3 2-.7 2.3-2.2 1.5-2.9-1.5-11.6-1.2-13 .4-2.6 3.2-.8 6 5.9 9.2 11.7 5.6 13.9 10.9 7.2 17.5-3.7 3.7-4.2 3.9-10 3.9-7.8 0-10.1-1.1-10.1-5 0-3.5-.1-3.4 3.6-1.5 5.1 2.6 12.4 1.6 13.8-2 1-2.8-.6-4.6-7.7-8.1-8.2-4-9.6-5.6-9.7-10.5 0-4.4 2.5-7.8 7.1-9.6 3.9-1.5 12.2-1.1 14.2.6zm114.6.2c7 4.2 8.5 7.3 8.5 16.9 0 6.3-.4 8.1-2.4 11.2-3.4 5.1-8.6 7.8-14.9 7.8-6.1 0-9.7-1.6-13.8-6.3-5-5.7-5.5-16.2-1.1-23.4 4.6-7.6 16.4-10.7 23.7-6.2zm35.9 1.5c.3 2.9.1 3-3 2.6-2.6-.3-3.8.2-5.8 2.3-2.3 2.5-2.5 3.5-3 15.2-.4 10.1-.8 12.8-2.1 13.6-.9.6-2.4.7-3.3.4-1.5-.6-1.6-2.6-1.4-18.4l.3-17.8 2.7-.3c1.9-.2 2.8.2 3.3 1.8.6 2 .7 2 3.8-.5 4.4-3.5 8.1-3 8.5 1.1zm28.3-1.4c4.4 2.4 8.2 9.9 7.7 15.1l-.3 3.2-12 .3c-6.6.1-12.3.6-12.8 1.1-.5.5.1 2.7 1.2 4.9 1.5 2.9 3 4.4 5.4 5.1 3.5 1.2 11.3.5 12.3-1 1.2-1.9 3.4-.8 3.4 1.7 0 3.2-4.8 5.4-12.1 5.4-10.5 0-16.9-7-16.9-18.5 0-14.6 12.7-23.7 24.1-17.3zm-384.3 17c.2 17.2.2 17.7-1.9 18.3-1.1.4-2.5.3-3.1-.3-1.1-1.1-1.4-33.5-.3-35.2.4-.6 1.7-1 2.8-.8 2.1.3 2.2.7 2.5 18zm136.5-13.5c.8 2.7 2.5 8.7 3.8 13.5 1.3 4.9 2.6 8.8 2.9 8.8.4 0 2.1-4.8 3.9-10.8 4.8-16.1 5-16.4 8-16 2.3.3 2.8 1.2 5.3 10.3 4.3 15.3 5.1 17.5 6 17.5.4 0 .8-.8.8-1.9 0-2.1 5.5-23.5 6.5-25 .7-1.3 5.5-1.5 5.5-.3 0 2.4-10.4 34.8-11.4 35.4-4.3 2.8-5.8-.1-11.6-22.1-.6-2.4-1.5-4-1.9-3.5-.5.5-2.1 4.9-3.6 9.9-1.4 4.9-3.2 10.4-3.8 12.2-1.2 3.5-4.4 5-6.5 3-1-1.1-5.3-14.2-9.2-28.2-.5-1.7-1.2-4-1.5-5.3-.7-1.9-.4-2.2 2.3-2.2 2.9 0 3.2.4 4.5 4.7z"/><path d="M224 61v13h5.8c9.9 0 13.5-4.5 12-15.3-1.1-8.3-3.8-10.7-12-10.7H224v13zm209.2-3.3c-3.4 1.4-5.2 9.5-3 13.6 3.8 7.3 11.4 5.4 13.3-3.3 1.4-6.3-4.8-12.5-10.3-10.3zm-171.7 1.8c-4.7 4.6-2.1 16.5 3.5 16.5 7.2 0 10.8-10.6 5.5-16.4-3-3.3-5.9-3.3-9-.1zm111-.1c-1.9 1.9-2.5 3.5-2.5 6.9 0 9 7.6 12.9 12.4 6.4 6.1-8.2-2.8-20.4-9.9-13.3zm33.2 8.8c-4.6 1.2-6.4 4-4.1 6.2 2.2 2.2 5.6 2 8.3-.5 2.2-2.1 2.6-6 .6-6.5-.5-.1-2.7.3-4.8.8zm72.7-10.4c-2.2 1.5-4.4 5.8-4.4 8.5 0 4.2 2.7 8.6 5.7 9.3 3.4.9 5.4-.4 7.6-4.9 1.6-3.1 1.7-4.2.7-7.2-1.7-5.1-6.4-7.9-9.6-5.7zm117.8.8c-4.1 2.9-2.8 4.4 3.8 4.4 6.4 0 7.2-.8 4-4-2.4-2.4-4.8-2.5-7.8-.4zM88.4 96.3c-.2.7-.3 5.8-.2 11.3l.3 9.9h25l.3-11.3.3-11.2h-12.6c-9.5 0-12.7.3-13.1 1.3zm-20.6 4-5.7 1-.3 7.6c-.2 4.2-.1 8 .3 8.4.3.4 5.3.6 11 .5l10.4-.3.3-9.3.3-9.2-5.3.1c-2.9.1-7.9.6-11 1.2zm-5.9 22.1c-.2.2-.2 3.7.1 7.8l.5 7.3 8.5 1.2c14.3 1.9 13 2.7 13-7.7v-9H73.2c-6 0-11.1.2-11.3.4zM88 131c0 8.5.1 9 2.3 9.4 6 1.4 19.6 3.6 21.5 3.6 2.1 0 2.2-.4 2.2-11v-11H88v9zm270 3.9c-4.4 1.2-7 6.5-7 14.1 0 5.7.4 7.1 2.4 9.3 4.8 5.2 12.4 4.6 16.3-1.2 1.8-2.6 2.3-4.8 2.3-9.5 0-5.3-.4-6.6-2.7-9.3-3-3.3-7.1-4.6-11.3-3.4zm37.6 3.4c-2.1 2.8-2.6 4.5-2.6 9.5 0 7.6 1.4 10.7 5.5 12.7 4.3 2 8 1.9 11.5-.2 3.8-2.2 5-5.2 5-12.8 0-5.4-.4-6.8-2.6-9.4-2.3-2.8-3.1-3.1-8.4-3.1-5.5 0-6.1.2-8.4 3.3zm205.1-2.2c-2.9 1.7-4.7 6.5-4.7 12.8 0 4.9.4 6.5 2.6 9 4.3 5.2 12.4 5.4 17 .4 2.1-2.2 2.4-3.6 2.4-9.5 0-7-1-10.3-3.9-12.5-1.9-1.5-10.9-1.6-13.4-.2zm69.6-1.3c-2.7.4-7.5 5.9-7.1 8.1.3 1.3 1.8 1.6 8.8 1.6 8.2 0 8.5-.1 8.8-2.3.7-4.5-4.8-8.3-10.5-7.4z"/></svg>