<?xml version="1.0" standalone="no"?>
<!DOCTYPE svg PUBLIC "-//W3C//DTD SVG 20010904//EN"
 "http://www.w3.org/TR/2001/REC-SVG-20010904/DTD/svg10.dtd">
<svg version="1.0" xmlns="http://www.w3.org/2000/svg"
 width="776.000000pt" height="264.000000pt" viewBox="0 0 776.000000 264.000000"
 preserveAspectRatio="xMidYMid meet">
<metadata>
Created by potrace 1.16, written by Peter Selinger 2001-2019
</metadata>
<g transform="translate(0.000000,264.000000) scale(0.100000,-0.100000)"
fill="#000000" stroke="none">
<path d="M168 2632 c-1 -4 -25 -25 -52 -47 -26 -22 -64 -55 -82 -73 l-34 -34
0 -1159 0 -1159 51 -50 c28 -27 54 -50 57 -50 4 0 21 -14 39 -30 l32 -30 3690
0 c2454 0 3691 3 3691 10 0 6 5 10 10 10 12 0 34 18 95 78 64 64 75 77 75 90
0 7 5 12 10 12 7 0 10 380 10 1120 0 740 -3 1120 -10 1120 -5 0 -10 6 -10 13
0 7 -8 20 -17 28 -10 9 -25 26 -33 39 -8 12 -40 41 -70 63 -30 22 -56 44 -58
49 -5 10 -7389 11 -7394 0z m1175 -250 c109 -48 184 -138 214 -254 13 -52 21
-67 33 -64 8 3 32 8 53 12 20 3 37 8 37 11 0 18 -50 96 -85 133 -23 25 -55 62
-71 84 l-28 39 53 -27 c67 -34 129 -98 160 -164 14 -31 31 -52 40 -52 9 0 53
7 97 16 l82 16 76 -51 c68 -47 84 -53 163 -64 l88 -12 2 -715 3 -715 -166 -63
-166 -63 -686 136 c-378 75 -695 138 -704 141 -17 5 -18 41 -18 564 0 523 1
559 18 564 9 3 79 17 155 32 l137 27 0 74 c0 188 119 358 290 414 45 15 171 4
223 -19z m1667 -462 c35 -143 67 -260 70 -260 5 0 52 161 142 488 9 31 11 32
63 32 l54 0 19 -62 c10 -35 43 -152 73 -260 30 -109 56 -198 59 -198 3 0 34
116 70 258 l65 257 48 3 c26 2 47 0 47 -5 0 -4 -41 -155 -92 -335 l-91 -328
-46 0 -46 0 -74 268 c-41 147 -77 273 -81 280 -3 7 -42 -113 -85 -267 l-79
-281 -45 0 -46 0 -90 321 c-49 177 -91 328 -93 335 -3 11 9 14 46 14 l49 0 63
-260z m1920 -75 l0 -335 -45 0 c-42 0 -45 2 -45 26 l0 26 -31 -26 c-38 -33
-66 -40 -134 -34 -100 8 -161 84 -172 215 -13 154 61 269 183 289 35 5 71 -3
137 -31 16 -7 17 2 17 99 l0 106 45 0 45 0 0 -335z m-586 137 c59 -34 66 -65
66 -279 l0 -193 -45 0 -45 0 0 181 c0 221 -6 239 -83 239 -44 0 -70 -12 -109
-48 l-28 -26 0 -173 0 -173 -45 0 -45 0 0 240 0 240 45 0 c42 0 45 -2 45 -26
l0 -25 34 26 c19 15 47 30 63 35 38 13 110 4 147 -18z m1046 -10 c69 -42 100
-110 100 -218 0 -125 -34 -190 -124 -236 -32 -16 -54 -19 -117 -16 -67 3 -83
7 -120 33 -26 18 -53 50 -68 80 -22 43 -26 62 -26 140 1 94 13 133 59 183 67
75 203 90 296 34z m1157 13 c34 -14 73 -67 73 -97 0 -14 -9 -18 -43 -18 -37 0
-46 4 -55 24 -29 64 -192 49 -192 -18 0 -34 17 -44 129 -75 119 -33 148 -50
168 -99 29 -68 1 -137 -73 -179 -52 -30 -178 -32 -240 -4 -43 20 -84 73 -84
110 0 18 6 21 43 21 38 0 44 -3 54 -30 13 -35 46 -50 108 -50 56 0 90 15 104
47 23 51 2 69 -111 99 -100 25 -157 54 -173 85 -43 83 6 173 110 200 39 10
140 1 182 -16z m-2667 -235 l0 -240 -45 0 -45 0 0 240 0 240 45 0 45 0 0 -240z
m1785 74 c21 -91 42 -167 46 -169 3 -2 28 71 55 163 l49 167 45 0 45 0 49
-167 c28 -92 53 -165 56 -162 3 3 23 78 46 167 l40 162 51 3 50 3 -72 -238
-73 -238 -44 -3 -44 -3 -49 166 c-27 91 -52 165 -55 165 -3 0 -28 -74 -54
-165 l-49 -165 -43 0 -43 0 -35 113 c-19 61 -53 169 -74 240 l-39 127 51 0 51
0 40 -166z m-2417 -759 c83 -25 152 -97 152 -160 0 -23 -4 -25 -43 -25 -42 0
-45 2 -60 40 -19 50 -67 73 -152 73 -95 1 -145 -34 -145 -102 0 -40 33 -64
117 -86 207 -53 253 -76 289 -146 18 -35 18 -100 1 -142 -20 -45 -88 -104
-139 -118 -67 -18 -214 -7 -265 19 -50 26 -96 80 -112 131 -17 58 -15 61 33
61 41 0 45 -2 51 -30 8 -37 63 -86 112 -99 141 -40 271 34 234 132 -15 38 -44
53 -166 86 -61 15 -126 35 -145 43 -107 46 -140 171 -67 255 67 76 187 103
305 68z m392 -125 l0 -60 35 0 c33 0 35 -2 35 -35 0 -33 -2 -35 -35 -35 l-35
0 0 -165 c0 -152 1 -165 19 -175 11 -5 32 -10 46 -10 24 0 26 -3 23 -32 l-3
-33 -63 0 c-57 0 -66 3 -88 28 -23 27 -24 33 -24 208 l0 179 -30 0 c-28 0 -30
3 -30 34 0 30 3 35 28 38 26 3 27 6 30 61 l3 57 44 0 45 0 0 -60z m480 -78
c69 -42 100 -110 100 -218 0 -125 -34 -190 -124 -236 -32 -16 -54 -19 -117
-16 -67 3 -83 7 -120 33 -26 18 -53 50 -68 80 -22 43 -26 62 -26 140 1 94 13
133 59 183 67 75 203 90 296 34z m458 -9 l3 -43 -41 0 c-45 0 -72 -11 -107
-43 -22 -20 -23 -27 -23 -194 l0 -173 -45 0 -45 0 0 240 0 240 45 0 c42 0 45
-2 45 -25 l0 -26 38 30 c40 32 63 40 102 38 22 -2 25 -7 28 -44z m372 14 c64
-33 103 -99 108 -183 l4 -64 -185 0 -185 0 9 -41 c18 -80 64 -119 138 -119 56
0 89 15 109 50 15 26 23 30 60 30 51 0 55 -17 17 -72 -35 -52 -96 -78 -181
-78 -86 0 -137 22 -186 79 -76 89 -77 250 -3 346 63 83 189 105 295 52z"/>
<path d="M1116 2343 c-57 -20 -144 -95 -179 -156 -35 -59 -57 -141 -57 -208
l0 -57 43 9 c91 20 87 17 87 54 0 82 78 228 156 291 38 31 48 35 79 30 40 -8
45 -21 13 -32 -32 -10 -114 -90 -142 -139 -26 -43 -63 -161 -54 -170 4 -5 448
81 455 88 7 7 -29 123 -48 153 -28 45 -94 103 -144 125 -62 28 -149 33 -209
12z"/>
<path d="M1350 1641 l-185 -26 -3 -147 -3 -148 206 0 205 0 0 175 c0 160 -1
175 -17 174 -10 -1 -101 -13 -203 -28z"/>
<path d="M975 1589 c-71 -10 -136 -21 -142 -24 -10 -3 -13 -38 -13 -125 l0
-120 155 0 155 0 0 145 c0 110 -3 145 -12 144 -7 -1 -71 -9 -143 -20z"/>
<path d="M820 1165 l0 -124 33 -6 c74 -12 238 -35 257 -35 19 0 20 7 20 145
l0 145 -155 0 -155 0 0 -125z"/>
<path d="M1160 1140 c0 -82 3 -150 8 -150 4 0 86 -11 182 -25 96 -14 185 -25
198 -25 22 0 22 0 22 175 l0 175 -205 0 -205 0 0 -150z"/>
<path d="M4670 1922 c-51 -25 -74 -78 -73 -172 0 -131 41 -187 129 -177 34 3
54 13 80 38 l34 33 0 116 c0 131 -4 140 -77 166 -49 17 -52 17 -93 -4z"/>
<path d="M5223 1929 c-101 -29 -135 -231 -54 -321 54 -60 163 -47 207 25 26
43 27 187 2 233 -30 55 -93 81 -155 63z"/>
<path d="M3953 819 c-101 -29 -135 -231 -54 -321 54 -60 163 -47 207 25 26 43
27 187 2 233 -30 55 -93 81 -155 63z"/>
<path d="M4796 820 c-34 -11 -63 -36 -82 -72 -29 -57 -27 -58 122 -58 l135 0
-7 23 c-27 89 -92 130 -168 107z"/>
</g>
</svg>
