<svg width="25" height="25" fill="none" xmlns="http://www.w3.org/2000/svg"><defs><clipPath id="a"><path fill="#fff" fill-opacity="0" d="M0 0h25v25H0z"/></clipPath></defs><path d="M0 0h25v25H0z"/><g clip-path="url(#a)" fill="#000"><path d="M11.25 3.75H22.5v.833H11.25V3.75Zm0 1.667h7.083v.833H11.25v-.833Zm0 1.666h7.083v.834H11.25v-.834Zm3.333-5H22.5v.834h-7.917v-.834Zm-1.666 0h.833v.834h-.833v-.834Zm-.834 14.584h.834v.833h-.834v-.833Z" fill-rule="evenodd"/><path d="m6.961 2.795-.589-.59-.833.834a.417.417 0 0 0 0 .589l.833.833.59-.589-.54-.539.54-.538Zm3.334.244-.834-.834-.589.59.539.538-.539.54.59.588.833-.833a.417.417 0 0 0 0-.59Z"/><path d="m7.104 4.451.834-2.5.79.264-.834 2.5-.79-.264Z" fill-rule="evenodd"/><path d="M21.667 12.917V9.583h-.834v3.334H20V8.75h-.833v4.167h-.834v-2.084H17.5v2.084h-.833v-2.5h-.834v2.5H15V11.25h-.833v1.667h-.834v.833H22.5v-.833h-.833Z"/><path d="M22.083 0H2.917a2.502 2.502 0 0 0-2.5 2.5v14.167a2.502 2.502 0 0 0 2.5 2.5h5.159L6.409 22.5H4.167a1.25 1.25 0 0 0 0 2.5h16.666a1.25 1.25 0 0 0 0-2.5h-2.242l-1.667-3.333h5.16a2.502 2.502 0 0 0 2.5-2.5V2.5a2.502 2.502 0 0 0-2.5-2.5ZM1.25 5.863l.947 1.127a.42.42 0 0 0 .32.149h1.275c.123 0 .24-.055.319-.149l.947-1.127.935.303.104 1.468c.008.123.07.236.17.308l1.032.75a.42.42 0 0 0 .346.067l1.43-.355.579.795-.78 1.25a.416.416 0 0 0-.04.35l.394 1.213a.417.417 0 0 0 .24.257l1.365.554v.983l-1.366.554a.414.414 0 0 0-.24.258L9.102 15h-2.4A3.923 3.923 0 0 0 1.25 9.884V5.863Zm0 5.012A3.095 3.095 0 0 1 5.75 15h-4.5v-4.125Zm19.583 12.458a.417.417 0 1 1 0 .834H4.167a.417.417 0 1 1 0-.834h16.666ZM17.66 22.5H7.341l1.667-3.333h6.985l1.666 3.333Zm6.091-5.833c0 .92-.746 1.666-1.667 1.666H2.917c-.92 0-1.667-.746-1.667-1.666v-.834h22.501v.834Zm0-1.667H10.106l1.3-.527a.417.417 0 0 0 .26-.386v-1.545a.416.416 0 0 0-.26-.387l-1.448-.585-.274-.844.826-1.325a.417.417 0 0 0-.017-.465l-.908-1.25a.417.417 0 0 0-.437-.16l-1.515.375-.716-.52-.11-1.554a.417.417 0 0 0-.287-.367l-1.469-.477a.42.42 0 0 0-.448.128L3.601 6.305h-.89L1.709 5.111a.42.42 0 0 0-.448-.128l-.01.003V2.5c0-.92.746-1.667 1.667-1.667h19.166c.92 0 1.667.747 1.667 1.667V15Z"/></g></svg>