<svg width="103.859" height="64.813" fill="none" xmlns="http://www.w3.org/2000/svg"><defs><linearGradient id="b" x1="42.375" y1="19.311" x2="33.439" y2="37.889" gradientUnits="userSpaceOnUse"><stop stop-color="#41873F"/><stop offset=".329" stop-color="#418B3D"/><stop offset=".635" stop-color="#419637"/><stop offset=".932" stop-color="#3FA92D"/><stop offset="1" stop-color="#3FAE2A"/></linearGradient><linearGradient id="c" x1="36.848" y1="29.033" x2="61.922" y2="10.153" gradientUnits="userSpaceOnUse"><stop offset=".138" stop-color="#41873F"/><stop offset=".403" stop-color="#54A044"/><stop offset=".714" stop-color="#66B848"/><stop offset=".908" stop-color="#6CC04A"/></linearGradient><linearGradient id="d" x1="28.991" y1="12.857" x2="47.287" y2="12.857" gradientUnits="userSpaceOnUse"><stop offset=".092" stop-color="#6CC04A"/><stop offset=".286" stop-color="#66B848"/><stop offset=".597" stop-color="#54A044"/><stop offset=".862" stop-color="#41873F"/></linearGradient><linearGradient id="e" x1="26.918" y1="27.669" x2="49.788" y2="27.669" gradientUnits="userSpaceOnUse"><stop offset=".092" stop-color="#6CC04A"/><stop offset=".286" stop-color="#66B848"/><stop offset=".597" stop-color="#54A044"/><stop offset=".862" stop-color="#41873F"/></linearGradient><linearGradient id="f" x1="42.881" y1="34.297" x2="49.742" y2="34.297" gradientUnits="userSpaceOnUse"><stop offset=".092" stop-color="#6CC04A"/><stop offset=".286" stop-color="#66B848"/><stop offset=".597" stop-color="#54A044"/><stop offset=".862" stop-color="#41873F"/></linearGradient><linearGradient id="g" x1="26.918" y1="37.33" x2="49.788" y2="37.33" gradientUnits="userSpaceOnUse"><stop offset=".092" stop-color="#6CC04A"/><stop offset=".286" stop-color="#66B848"/><stop offset=".597" stop-color="#54A044"/><stop offset=".862" stop-color="#41873F"/></linearGradient><linearGradient id="h" x1="53.12" y1="18.76" x2="39.016" y2="48.083" gradientUnits="userSpaceOnUse"><stop stop-color="#41873F"/><stop offset=".329" stop-color="#418B3D"/><stop offset=".635" stop-color="#419637"/><stop offset=".932" stop-color="#3FA92D"/><stop offset="1" stop-color="#3FAE2A"/></linearGradient></defs><path d="M51.366 64.813c-.352 0-.68-.096-.986-.264l-3.122-1.89c-.47-.263-.235-.359-.094-.407.634-.215.751-.263 1.408-.646.07-.047.165-.023.235.025l2.395 1.459c.094.048.211.048.282 0l9.367-5.527c.093-.048.14-.143.14-.263V46.27c0-.119-.047-.215-.14-.262l-9.367-5.503c-.094-.048-.212-.048-.282 0l-9.367 5.503c-.094.047-.141.167-.141.263V57.3c0 .096.047.215.14.263l2.56 1.508c1.385.717 2.253-.12 2.253-.957V47.228c0-.144.118-.287.282-.287h1.197c.141 0 .282.12.282.287v10.886c0 1.89-1.01 2.99-2.77 2.99-.54 0-.963 0-2.16-.598l-2.465-1.435a2.027 2.027 0 0 1-.986-1.747v-11.03c0-.717.376-1.387.986-1.746l9.367-5.526a2.06 2.06 0 0 1 1.972 0l9.367 5.526c.61.359.986 1.029.986 1.747v11.029c0 .718-.375 1.388-.986 1.747l-9.367 5.526a2.365 2.365 0 0 1-.986.216Zm2.888-7.585c-4.109 0-4.954-1.914-4.954-3.54a.29.29 0 0 1 .282-.288h1.22c.142 0 .259.096.259.24.188 1.268.728 1.89 3.216 1.89 1.972 0 2.817-.455 2.817-1.532 0-.621-.234-1.076-3.31-1.387-2.559-.263-4.155-.838-4.155-2.92 0-1.937 1.596-3.085 4.273-3.085 3.005 0 4.484 1.052 4.671 3.35a.391.391 0 0 1-.07.214c-.047.048-.117.096-.188.096h-1.22a.276.276 0 0 1-.259-.215c-.282-1.316-1.01-1.747-2.934-1.747-2.16 0-2.419.766-2.419 1.34 0 .694.306.91 3.217 1.292 2.887.383 4.249.933 4.249 2.99-.023 2.106-1.714 3.302-4.695 3.302Z" fill="#539E43"/><path d="M22.302 21.676c0-.43-.234-.837-.61-1.053l-9.954-5.837a1.425 1.425 0 0 0-.54-.168h-.094a1.1 1.1 0 0 0-.54.168L.61 20.623c-.375.216-.61.622-.61 1.053l.023 15.695c0 .215.118.43.306.526.187.12.422.12.587 0l5.916-3.445c.375-.215.61-.622.61-1.053v-7.345c0-.43.235-.837.61-1.052l2.512-1.484c.188-.12.4-.167.61-.167.212 0 .423.048.588.167l2.512 1.483c.375.216.61.622.61 1.053V33.4c0 .43.235.838.61 1.053l5.916 3.445c.188.12.423.12.61 0a.596.596 0 0 0 .306-.526l-.024-15.695ZM70.147.072a.635.635 0 0 0-.587 0 .626.626 0 0 0-.305.526V16.15c0 .144-.07.287-.211.383a.441.441 0 0 1-.423 0l-2.488-1.46a1.19 1.19 0 0 0-1.198 0l-9.954 5.862c-.375.216-.61.622-.61 1.053v11.7c0 .43.235.837.61 1.052l9.954 5.862a1.19 1.19 0 0 0 1.198 0l9.954-5.862c.375-.215.61-.622.61-1.053V4.522c0-.455-.235-.862-.61-1.077L70.147.072Zm-.915 29.762c0 .12-.047.216-.141.263l-3.404 2.01a.343.343 0 0 1-.305 0l-3.405-2.01c-.093-.047-.14-.167-.14-.263v-4.02c0-.119.046-.214.14-.262l3.405-2.01a.342.342 0 0 1 .305 0l3.404 2.01c.094.048.14.167.14.263v4.02Zm34.04-4.114a1.2 1.2 0 0 0 .587-1.053v-2.848c0-.43-.235-.837-.587-1.052l-9.883-5.838a1.191 1.191 0 0 0-1.198 0l-9.954 5.862a1.22 1.22 0 0 0-.61 1.052v11.7c0 .43.235.837.61 1.052l9.884 5.742c.376.216.822.216 1.174 0l5.986-3.397a.596.596 0 0 0 .305-.526.596.596 0 0 0-.305-.527l-10-5.861a.625.625 0 0 1-.306-.527v-3.66c0-.215.118-.43.305-.526l3.123-1.819a.564.564 0 0 1 .61 0l3.122 1.819c.188.12.306.31.306.526v2.87c0 .216.117.431.305.527.188.12.422.12.61 0l5.916-3.517Z" fill="#333"/><path d="M92.638 25.169a.21.21 0 0 1 .234 0l1.902 1.125c.07.047.117.12.117.215v2.249a.252.252 0 0 1-.117.215l-1.902 1.124a.21.21 0 0 1-.234 0l-1.902-1.124a.252.252 0 0 1-.118-.215v-2.25a.25.25 0 0 1 .118-.214l1.901-1.125Z" fill="#539E43"/><mask id="a" mask-type="alpha" maskUnits="userSpaceOnUse" x="27.279" y="14.815" width="22.138" height="25.707"><path d="M38.947 14.977a1.191 1.191 0 0 0-1.197 0l-9.884 5.814a1.2 1.2 0 0 0-.587 1.052v11.652c0 .43.235.837.587 1.052l9.884 5.814a1.19 1.19 0 0 0 1.197 0l9.884-5.814a1.2 1.2 0 0 0 .587-1.052V21.843c0-.43-.235-.837-.587-1.052l-9.884-5.814Z" fill="#FFF"/></mask><g mask="url(#a)"><path d="M38.947 14.977a1.191 1.191 0 0 0-1.197 0l-9.884 5.814a1.2 1.2 0 0 0-.587 1.052v11.652c0 .43.235.837.587 1.052l9.884 5.814a1.19 1.19 0 0 0 1.197 0l9.884-5.814a1.2 1.2 0 0 0 .587-1.052V21.843c0-.43-.235-.837-.587-1.052l-9.884-5.814Z" fill="url(#b)"/></g><g mask="url(#a)"><path d="m48.854 20.79-9.93-5.814a1.613 1.613 0 0 0-.306-.12L27.491 34.285c.094.12.211.215.328.287l9.93 5.814c.283.167.611.215.916.12L49.112 21.03a1.249 1.249 0 0 0-.258-.239Z" fill="url(#c)"/></g><g mask="url(#a)" fill-rule="evenodd"><path d="m37.421 12.848-.14.071h.187l-.047-.071Z" fill="url(#d)"/><path d="M48.878 34.547c.281-.167.493-.454.587-.765L38.57 14.833c-.281-.048-.586-.024-.845.144l-9.86 5.79L38.5 40.529a1.61 1.61 0 0 0 .446-.144l9.93-5.838Z" fill="url(#e)"/><path d="m49.793 34.356-.07-.12v.168l.07-.048Z" fill="url(#f)"/><path d="m48.878 34.547-9.907 5.814c-.141.072-.282.12-.446.144l.187.358L49.7 34.38v-.144l-.281-.478a1.112 1.112 0 0 1-.54.79Z" fill="url(#g)"/><path d="m48.878 34.547-9.907 5.814c-.141.072-.282.12-.446.144l.187.358L49.7 34.38v-.144l-.281-.478a1.112 1.112 0 0 1-.54.79Z" fill="url(#h)"/></g></svg>