<svg width="71.558" height="64.648" fill="none" xmlns="http://www.w3.org/2000/svg"><path d="M0 32.208c0 5.43 5.277 10.499 13.597 13.357-1.662 8.404-.298 15.177 4.256 17.817 4.682 2.712 11.656.835 18.276-4.98 6.453 5.58 12.974 7.776 17.525 5.129 4.677-2.72 6.1-9.954 4.392-18.62 8.665-2.879 13.512-7.202 13.512-12.703 0-5.304-5.286-9.893-13.494-12.732 1.838-9.025.28-15.634-4.462-18.383-4.573-2.65-11.17-.34-17.718 5.386C29.073.4 22.54-1.454 17.802 1.302c-4.569 2.657-5.872 9.554-4.205 18.114C5.557 22.232 0 26.925 0 32.208Z" fill="#FFF"/><path d="M56.326 22.295a42.261 42.261 0 0 0-2.046-.648c.116-.474.222-.942.316-1.402 1.549-7.553.536-13.638-2.921-15.642-3.315-1.92-8.737.082-14.213 4.87a42.85 42.85 0 0 0-1.583 1.46 39.051 39.051 0 0 0-1.052-.978c-5.74-5.12-11.492-7.278-14.946-5.268-3.312 1.926-4.293 7.647-2.899 14.805.135.692.292 1.398.47 2.116-.814.232-1.6.48-2.352.743-6.728 2.357-11.025 6.051-11.025 9.883 0 3.957 4.613 7.927 11.62 10.333.554.19 1.128.37 1.719.54a42.07 42.07 0 0 0-.5 2.28c-1.328 7.034-.29 12.62 3.013 14.534 3.412 1.977 9.138-.055 14.714-4.953.44-.387.883-.797 1.326-1.228a41.895 41.895 0 0 0 1.718 1.575c5.401 4.67 10.736 6.556 14.036 4.636 3.409-1.983 4.516-7.983 3.078-15.282a36.32 36.32 0 0 0-.381-1.707c.402-.12.797-.243 1.182-.371 7.285-2.426 12.025-6.347 12.025-10.357 0-3.846-4.435-7.565-11.299-9.94Z" fill="#53C1DE"/><path d="M54.746 40.001a36.4 36.4 0 0 1-1.068.336c-.804-2.559-1.89-5.28-3.218-8.09 1.268-2.744 2.312-5.43 3.093-7.972.65.19 1.281.389 1.89.6 5.88 2.033 9.467 5.041 9.467 7.359 0 2.468-3.874 5.673-10.164 7.767Zm-2.61 5.197c.636 3.228.727 6.147.305 8.428-.378 2.05-1.14 3.417-2.08 3.964-2.003 1.165-6.286-.349-10.905-4.343a38.997 38.997 0 0 1-1.598-1.464c1.79-1.968 3.58-4.256 5.327-6.796 3.072-.274 5.975-.722 8.607-1.333.13.525.245 1.04.344 1.544ZM25.74 57.39c-1.957.694-3.515.714-4.457.169-2.005-1.162-2.838-5.647-1.702-11.662.13-.69.285-1.397.464-2.12 2.603.578 5.485.994 8.564 1.245 1.759 2.487 3.6 4.772 5.456 6.773a33.5 33.5 0 0 1-1.211 1.12c-2.466 2.166-4.937 3.703-7.114 4.475Zm-9.167-17.403c-3.1-1.064-5.658-2.447-7.412-3.957-1.576-1.356-2.372-2.703-2.372-3.795 0-2.326 3.45-5.291 9.204-7.307a39.153 39.153 0 0 1 2.187-.692c.796 2.6 1.839 5.317 3.098 8.065-1.276 2.789-2.334 5.55-3.137 8.18a32.19 32.19 0 0 1-1.568-.494Zm3.073-21.018c-1.195-6.133-.401-10.76 1.594-11.92 2.127-1.237 6.828.526 11.783 4.947.317.283.635.579.953.884-1.846 1.993-3.67 4.26-5.413 6.732-2.99.279-5.85.726-8.48 1.325a40.235 40.235 0 0 1-.437-1.968Zm27.412 6.802a86.669 86.669 0 0 0-1.932-3.194c2.027.258 3.97.6 5.794 1.018a58.43 58.43 0 0 1-2.033 5.499 94.976 94.976 0 0 0-1.829-3.323ZM35.88 14.83a58.287 58.287 0 0 1 3.74 4.536 79.68 79.68 0 0 0-7.51-.002 60.135 60.135 0 0 1 3.77-4.535ZM24.63 25.788a80.879 80.879 0 0 0-1.794 3.302 60.39 60.39 0 0 1-2.02-5.526 60.93 60.93 0 0 1 5.762-.994 80.355 80.355 0 0 0-1.948 3.218Zm2.006 16.301a57.532 57.532 0 0 1-5.857-.946 61.449 61.449 0 0 1 2.06-5.637 80.553 80.553 0 0 0 3.797 6.584Zm9.32 7.74a61.16 61.16 0 0 1-3.824-4.597c1.217.048 2.457.072 3.718.072 1.295 0 2.576-.03 3.836-.086a57.964 57.964 0 0 1-3.73 4.612ZM48.913 35.41a58.028 58.028 0 0 1 2.134 5.617 57.397 57.397 0 0 1-5.928 1.015 94.6 94.6 0 0 0 1.951-3.249 86.848 86.848 0 0 0 1.843-3.383Zm-4.194 2.02a89.623 89.623 0 0 1-3.05 4.943 81.553 81.553 0 0 1-5.819.205 88.58 88.58 0 0 1-5.754-.182 77.442 77.442 0 0 1-3.106-4.95 76.855 76.855 0 0 1-2.711-5.146 77.54 77.54 0 0 1 2.703-5.148 76.764 76.764 0 0 1 3.081-4.929 76.59 76.59 0 0 1 5.787-.218c1.968 0 3.908.075 5.798.22a82.192 82.192 0 0 1 3.062 4.913 89.537 89.537 0 0 1 2.74 5.123 82.336 82.336 0 0 1-2.732 5.17Zm5.6-30.463c2.128 1.233 2.956 6.207 1.618 12.728-.085.417-.18.84-.285 1.27-2.637-.611-5.5-1.066-8.497-1.349-1.746-2.498-3.556-4.77-5.372-6.737.488-.472.976-.922 1.461-1.347 4.692-4.103 9.077-5.722 11.075-4.565Z" fill="#FFF"/><path d="M35.85 26.532c3.134 0 5.675 2.552 5.675 5.702 0 3.149-2.54 5.702-5.675 5.702-3.134 0-5.675-2.553-5.675-5.702 0-3.15 2.541-5.703 5.675-5.703Z" fill="#53C1DE"/></svg>