<svg width="19.786" height="25" fill="none" xmlns="http://www.w3.org/2000/svg"><path d="m17.11 16.333-1.467-.43-3.192-2.086v-.478a4.248 4.248 0 0 0 1.676-2.984.975.975 0 0 0 .82-.961V8.08l-.002-.015V6.4a.722.722 0 0 0 .302-.59V4.29l2.203-.376a.77.77 0 0 0 .648-.715.77.77 0 0 0-.542-.799L10.129.037a.777.777 0 0 0-.473 0L2.229 2.399a.77.77 0 0 0-.542.799.771.771 0 0 0 .299.565v1.991h-.018a.76.76 0 0 0-.759.759V7.5l-.49 2.874a.815.815 0 0 0 .804.952h1.658a.815.815 0 0 0 .803-.952L3.494 7.5v-.988a.76.76 0 0 0-.758-.759h-.018V3.98l1.821.31v1.523c0 .24.117.455.3.588l.001 1.68v1.314c0 .484.355.887.819.961a4.25 4.25 0 0 0 1.675 2.983v.48l-3.191 2.085-1.466.43A3.724 3.724 0 0 0 0 19.908V21a.366.366 0 1 0 .733 0v-1.09a3.01 3.01 0 0 1 2.15-2.873l1.366-.401 5.457 3.243a.37.37 0 0 0 .374 0l5.458-3.243 1.366.4a3.01 3.01 0 0 1 2.15 2.873v3.537a.824.824 0 0 1-.823.823h-1.614V22.69a.366.366 0 1 0-.732 0v1.579H3.9V22.69a.366.366 0 1 0-.732 0v1.579H1.555a.824.824 0 0 1-.823-.823v-.734a.366.366 0 0 0-.732 0v.734C0 24.302.698 25 1.555 25h16.676c.858 0 1.555-.698 1.555-1.555v-3.537a3.724 3.724 0 0 0-2.676-3.575ZM3.18 10.594H1.524a.082.082 0 0 1-.081-.096l.442-2.6h.935l.443 2.6a.082.082 0 0 1-.081.096Zm-.418-4.081v.653h-.82v-.653c0-.015.011-.027.026-.027h.768c.015 0 .026.012.026.027ZM8.584 18.22l.145.224-3.738-2.221 2.373-1.55a7.692 7.692 0 0 0 1.22 3.547Zm-.003-1.58a9.418 9.418 0 0 0 2.625 0c-.167.41-.372.805-.617 1.18l-.696 1.07-.696-1.07a6.993 6.993 0 0 1-.616-1.18Zm2.622 1.58a7.691 7.691 0 0 0 1.22-3.547l2.373 1.55-3.739 2.221.146-.224Zm2.142-11.684h.868v1.177h-.43a.438.438 0 0 1-.438-.437v-.74ZM2.451 3.097 9.878.735a.048.048 0 0 1 .03 0l7.426 2.362c.015.005.036.012.034.05-.003.038-.025.042-.04.044l-2.456.419-.922-.115a.366.366 0 1 0-.09.727l.655.081v1.502H5.272V4.302l3.789-.469a6.78 6.78 0 0 1 1.663 0l1.434.178a.366.366 0 1 0 .09-.727l-1.434-.177a7.508 7.508 0 0 0-1.843 0l-4.057.502-2.456-.419c-.016-.002-.038-.006-.04-.044-.003-.038.018-.045.033-.05Zm3.121 4.617V6.537h.87v.74a.438.438 0 0 1-.438.437h-.432Zm.806 2.453a.568.568 0 0 0-.564-.532.242.242 0 0 1-.241-.241v-.948h.431a1.17 1.17 0 0 0 1.17-1.17v-.739h5.439v.74c0 .645.524 1.17 1.17 1.17h.43v.947a.242.242 0 0 1-.24.241.568.568 0 0 0-.565.532 3.527 3.527 0 0 1-3.515 3.298 3.527 3.527 0 0 1-3.515-3.298Zm3.515 4.03c.651 0 1.27-.149 1.825-.414v.232c0 .627-.084 1.244-.247 1.84a8.65 8.65 0 0 1-3.156 0 6.98 6.98 0 0 1-.247-1.84l-.001-.023v-.209a4.226 4.226 0 0 0 1.826.414Z" fill="#000"/></svg>